<svg width="901" height="901" viewBox="0 0 901 901" fill="none" xmlns="http://www.w3.org/2000/svg">
<g opacity="0.2">
<circle opacity="0.0169492" r="442.734" transform="matrix(-1 0 0 1 450.501 450.5)" stroke="white"/>
<circle opacity="0.0338983" r="435.468" transform="matrix(-1 0 0 1 450.5 450.5)" stroke="white"/>
<circle opacity="0.0508475" r="428.202" transform="matrix(-1 0 0 1 450.5 450.5)" stroke="white"/>
<circle opacity="0.0677966" r="420.936" transform="matrix(-1 0 0 1 450.5 450.5)" stroke="white"/>
<circle opacity="0.0847458" r="413.669" transform="matrix(-1 0 0 1 450.5 450.5)" stroke="white"/>
<circle opacity="0.101695" r="406.403" transform="matrix(-1 0 0 1 450.5 450.5)" stroke="white"/>
<circle opacity="0.118644" r="399.137" transform="matrix(-1 0 0 1 450.501 450.5)" stroke="white"/>
<circle opacity="0.135593" r="391.871" transform="matrix(-1 0 0 1 450.5 450.5)" stroke="white"/>
<circle opacity="0.152542" r="384.605" transform="matrix(-1 0 0 1 450.5 450.5)" stroke="white"/>
<circle opacity="0.169492" r="377.339" transform="matrix(-1 0 0 1 450.501 450.5)" stroke="white"/>
<circle opacity="0.186441" r="370.073" transform="matrix(-1 0 0 1 450.5 450.5)" stroke="white"/>
<circle opacity="0.20339" r="362.807" transform="matrix(-1 0 0 1 450.5 450.5)" stroke="white"/>
<circle opacity="0.220339" r="355.54" transform="matrix(-1 0 0 1 450.5 450.5)" stroke="white"/>
<circle opacity="0.237288" r="348.274" transform="matrix(-1 0 0 1 450.5 450.5)" stroke="white"/>
<circle opacity="0.254237" r="341.008" transform="matrix(-1 0 0 1 450.5 450.5)" stroke="white"/>
<circle opacity="0.271186" r="333.742" transform="matrix(-1 0 0 1 450.5 450.5)" stroke="white"/>
<circle opacity="0.288136" r="326.476" transform="matrix(-1 0 0 1 450.5 450.5)" stroke="white"/>
<circle opacity="0.305085" r="319.21" transform="matrix(-1 0 0 1 450.5 450.5)" stroke="white"/>
<circle opacity="0.322034" r="311.944" transform="matrix(-1 0 0 1 450.501 450.5)" stroke="white"/>
<circle opacity="0.338983" r="304.678" transform="matrix(-1 0 0 1 450.5 450.5)" stroke="white"/>
<circle opacity="0.355932" r="297.411" transform="matrix(-1 0 0 1 450.501 450.5)" stroke="white"/>
<circle opacity="0.372881" r="290.145" transform="matrix(-1 0 0 1 450.5 450.5)" stroke="white"/>
<circle opacity="0.38983" r="282.879" transform="matrix(-1 0 0 1 450.5 450.5)" stroke="white"/>
<circle opacity="0.40678" r="275.613" transform="matrix(-1 0 0 1 450.5 450.5)" stroke="white"/>
<circle opacity="0.423729" r="268.347" transform="matrix(-1 0 0 1 450.501 450.5)" stroke="white"/>
<circle opacity="0.440678" r="261.081" transform="matrix(-1 0 0 1 450.5 450.5)" stroke="white"/>
<circle opacity="0.457627" r="253.815" transform="matrix(-1 0 0 1 450.501 450.5)" stroke="white"/>
<circle opacity="0.474576" r="246.548" transform="matrix(-1 0 0 1 450.5 450.5)" stroke="white"/>
<circle opacity="0.491525" r="239.282" transform="matrix(-1 0 0 1 450.501 450.5)" stroke="white"/>
<circle opacity="0.508475" r="232.016" transform="matrix(-1 0 0 1 450.501 450.5)" stroke="white"/>
<circle opacity="0.525424" r="224.75" transform="matrix(-1 0 0 1 450.5 450.5)" stroke="white"/>
<circle opacity="0.542373" r="217.484" transform="matrix(-1 0 0 1 450.5 450.5)" stroke="white"/>
<circle opacity="0.559322" r="210.218" transform="matrix(-1 0 0 1 450.5 450.5)" stroke="white"/>
<circle opacity="0.576271" r="202.952" transform="matrix(-1 0 0 1 450.501 450.5)" stroke="white"/>
<circle opacity="0.59322" r="195.686" transform="matrix(-1 0 0 1 450.5 450.5)" stroke="white"/>
<circle opacity="0.610169" r="188.419" transform="matrix(-1 0 0 1 450.5 450.5)" stroke="white"/>
<circle opacity="0.627119" r="181.153" transform="matrix(-1 0 0 1 450.5 450.5)" stroke="white"/>
<circle opacity="0.644068" r="173.887" transform="matrix(-1 0 0 1 450.501 450.5)" stroke="white"/>
<circle opacity="0.661017" r="166.621" transform="matrix(-1 0 0 1 450.5 450.5)" stroke="white"/>
<circle opacity="0.677966" r="159.355" transform="matrix(-1 0 0 1 450.5 450.5)" stroke="white"/>
<circle opacity="0.694915" r="152.089" transform="matrix(-1 0 0 1 450.5 450.5)" stroke="white"/>
<circle opacity="0.711864" r="144.823" transform="matrix(-1 0 0 1 450.5 450.5)" stroke="white"/>
<circle opacity="0.728814" r="137.557" transform="matrix(-1 0 0 1 450.5 450.5)" stroke="white"/>
<circle opacity="0.745763" r="130.29" transform="matrix(-1 0 0 1 450.501 450.5)" stroke="white"/>
<circle opacity="0.762712" r="123.024" transform="matrix(-1 0 0 1 450.5 450.5)" stroke="white"/>
<circle opacity="0.779661" r="115.758" transform="matrix(-1 0 0 1 450.5 450.5)" stroke="white"/>
<circle opacity="0.79661" r="108.492" transform="matrix(-1 0 0 1 450.5 450.5)" stroke="white"/>
<circle opacity="0.813559" r="101.226" transform="matrix(-1 0 0 1 450.5 450.5)" stroke="white"/>
<circle opacity="0.830508" r="93.9597" transform="matrix(-1 0 0 1 450.5 450.5)" stroke="white"/>
<circle opacity="0.847458" r="86.6936" transform="matrix(-1 0 0 1 450.5 450.5)" stroke="white"/>
<circle opacity="0.864407" r="79.4274" transform="matrix(-1 0 0 1 450.501 450.5)" stroke="white"/>
<circle opacity="0.881356" r="72.1613" transform="matrix(-1 0 0 1 450.501 450.5)" stroke="white"/>
<circle opacity="0.898305" r="64.8952" transform="matrix(-1 0 0 1 450.501 450.5)" stroke="white"/>
<circle opacity="0.915254" r="57.629" transform="matrix(-1 0 0 1 450.501 450.5)" stroke="white"/>
<circle opacity="0.932203" r="50.3629" transform="matrix(-1 0 0 1 450.5 450.5)" stroke="white"/>
<circle opacity="0.949153" r="43.0968" transform="matrix(-1 0 0 1 450.5 450.5)" stroke="white"/>
<circle opacity="0.966102" r="35.8307" transform="matrix(-1 0 0 1 450.5 450.5)" stroke="white"/>
<circle opacity="0.983051" r="28.5645" transform="matrix(-1 0 0 1 450.5 450.5)" stroke="white"/>
<circle r="21.2984" transform="matrix(-1 0 0 1 450.5 450.5)" stroke="white"/>
<circle r="14" transform="matrix(-1 0 0 1 450.5 450.359)" stroke="white"/>
<circle r="7" transform="matrix(-1 0 0 1 450.5 450.359)" stroke="white"/>
</g>
</svg>
