<svg width="0" height="0" class="hidden">
    <symbol fill="none" xmlns="http://www.w3.org/2000/svg" viewBox="0 0 16 20" id="cart">
        <path fill-rule="evenodd" clip-rule="evenodd" d="M4 8C4 8.55229 4.44772 9 5 9C5.55228 9 6 8.55229 6 8V6H10V8C10 8.55229 10.4477 9 11 9C11.5523 9 12 8.55229 12 8V6H14V15C14 16.6569 12.6569 18 11 18H5C3.34315 18 2 16.6569 2 15V6H4V8ZM6 4H10C10 2.89543 9.10457 2 8 2C6.89543 2 6 2.89543 6 4ZM12 4C12 1.79086 10.2091 0 8 0C5.79086 0 4 1.79086 4 4L1 4C0.447715 4 0 4.44772 0 5V15C0 17.7614 2.23858 20 5 20H11C13.7614 20 16 17.7614 16 15V5C16 4.44772 15.5523 4 15 4H12Z" fill="#535353"></path>
    </symbol>
    <symbol fill="none" xmlns="http://www.w3.org/2000/svg" viewBox="0 0 24 24" id="catalog">
        <path d="M12 13C12.5523 13 13 12.5523 13 12C13 11.4477 12.5523 11 12 11C11.4477 11 11 11.4477 11 12C11 12.5523 11.4477 13 12 13Z" stroke="white" stroke-width="1.5" stroke-linecap="round" stroke-linejoin="round"></path>
        <path d="M12 6C12.5523 6 13 5.55228 13 5C13 4.44772 12.5523 4 12 4C11.4477 4 11 4.44772 11 5C11 5.55228 11.4477 6 12 6Z" stroke="white" stroke-width="1.5" stroke-linecap="round" stroke-linejoin="round"></path>
        <path d="M12 20C12.5523 20 13 19.5523 13 19C13 18.4477 12.5523 18 12 18C11.4477 18 11 18.4477 11 19C11 19.5523 11.4477 20 12 20Z" stroke="white" stroke-width="1.5" stroke-linecap="round" stroke-linejoin="round"></path>
        <path d="M5 13C5.55228 13 6 12.5523 6 12C6 11.4477 5.55228 11 5 11C4.44772 11 4 11.4477 4 12C4 12.5523 4.44772 13 5 13Z" stroke="white" stroke-width="1.5" stroke-linecap="round" stroke-linejoin="round"></path>
        <path d="M19 13C19.5523 13 20 12.5523 20 12C20 11.4477 19.5523 11 19 11C18.4477 11 18 11.4477 18 12C18 12.5523 18.4477 13 19 13Z" stroke="white" stroke-width="1.5" stroke-linecap="round" stroke-linejoin="round"></path>
        <path d="M5 6C5.55228 6 6 5.55228 6 5C6 4.44772 5.55228 4 5 4C4.44772 4 4 4.44772 4 5C4 5.55228 4.44772 6 5 6Z" stroke="white" stroke-width="1.5" stroke-linecap="round" stroke-linejoin="round"></path>
        <path d="M19 6C19.5523 6 20 5.55228 20 5C20 4.44772 19.5523 4 19 4C18.4477 4 18 4.44772 18 5C18 5.55228 18.4477 6 19 6Z" stroke="white" stroke-width="1.5" stroke-linecap="round" stroke-linejoin="round"></path>
        <path d="M5 20C5.55228 20 6 19.5523 6 19C6 18.4477 5.55228 18 5 18C4.44772 18 4 18.4477 4 19C4 19.5523 4.44772 20 5 20Z" stroke="white" stroke-width="1.5" stroke-linecap="round" stroke-linejoin="round"></path>
        <path d="M19 20C19.5523 20 20 19.5523 20 19C20 18.4477 19.5523 18 19 18C18.4477 18 18 18.4477 18 19C18 19.5523 18.4477 20 19 20Z" stroke="white" stroke-width="1.5" stroke-linecap="round" stroke-linejoin="round"></path>
    </symbol>
    <symbol fill="none" xmlns="http://www.w3.org/2000/svg" viewBox="0 0 12 8" id="chevron-down">
        <path fill-rule="evenodd" clip-rule="evenodd" d="M0.410749 0.910582C0.0853125 1.23602 0.0853124 1.76366 0.410749 2.08909L5.41075 7.08909C5.73619 7.41453 6.26382 7.41453 6.58926 7.08909L11.5893 2.08909C11.9147 1.76366 11.9147 1.23602 11.5893 0.910582C11.2638 0.585145 10.7362 0.585145 10.4108 0.910582L6.00001 5.32133L1.58926 0.910582C1.26382 0.585145 0.736186 0.585145 0.410749 0.910582Z" fill="#2F2F2F"></path>
    </symbol>
    <symbol fill="none" xmlns="http://www.w3.org/2000/svg" viewBox="0 0 14 8" id="chevron-down-white">
        <path d="M1 1L7 7L13 1" stroke="white" stroke-width="1.5" stroke-linecap="round" stroke-linejoin="round"></path>
    </symbol>
    <symbol fill="none" xmlns="http://www.w3.org/2000/svg" viewBox="0 0 16 16" id="credit-card">
        <g opacity="0.3" clip-path="url(#clip0_1_1857)">
            <path d="M14 2.6665H1.99999C1.26361 2.6665 0.666656 3.26346 0.666656 3.99984V11.9998C0.666656 12.7362 1.26361 13.3332 1.99999 13.3332H14C14.7364 13.3332 15.3333 12.7362 15.3333 11.9998V3.99984C15.3333 3.26346 14.7364 2.6665 14 2.6665Z" stroke="white" stroke-width="1.5" stroke-linecap="round" stroke-linejoin="round"></path>
            <path d="M0.666656 6.6665H15.3333" stroke="white" stroke-width="1.5" stroke-linecap="round" stroke-linejoin="round"></path>
        </g>
        <defs>
            <clipPath id="clip0_1_1857">
                <rect width="16" height="16" fill="white"></rect>
            </clipPath>
        </defs>
    </symbol>
    <symbol fill="none" xmlns="http://www.w3.org/2000/svg" viewBox="0 0 20 18" id="favourites">
        <path fill-rule="evenodd" clip-rule="evenodd" d="M8.97152 17.2157L9.99939 15.5L11.053 17.2C10.4168 17.5943 9.61362 17.6003 8.97152 17.2157ZM8.49157 3.50745C7.71856 2.98243 6.70865 2.5 5.60747 2.5C3.08212 2.5 1.59985 4.35714 2.09394 6.90625C2.93987 11.2706 9.99939 15.5 9.99939 15.5C8.97152 17.2157 8.97191 17.2159 8.97152 17.2157L8.96752 17.2133L8.96095 17.2093L8.9402 17.1967C8.92305 17.1863 8.89931 17.1718 8.8694 17.1533C8.80959 17.1164 8.725 17.0636 8.61891 16.996C8.40691 16.8607 8.10812 16.6655 7.74906 16.4184C7.03368 15.9259 6.06543 15.2178 5.06254 14.3585C4.06529 13.5039 2.99565 12.4675 2.10359 11.3133C1.22404 10.1752 0.424685 8.80467 0.130483 7.28682C-0.205204 5.55495 0.0965686 3.8269 1.15486 2.50009C2.21997 1.16473 3.84152 0.5 5.60747 0.5C7.43114 0.5 8.94705 1.35898 9.8875 2.04462C9.92537 2.07223 9.96267 2.09983 9.99939 2.12737C10.0361 2.09983 10.0734 2.07223 10.1113 2.04462C11.0517 1.35898 12.5676 0.5 14.3913 0.5C18.3364 0.5 20.6123 4.15474 19.8509 7.36746C19.5018 8.84055 18.693 10.1821 17.8118 11.3083C16.9183 12.4501 15.8623 13.4815 14.8797 14.336C13.8921 15.1949 12.9444 15.9046 12.245 16.3991C11.8941 16.6473 11.6027 16.8434 11.396 16.9793C11.2927 17.0473 11.2103 17.1003 11.1521 17.1374C11.1374 17.1468 11.1242 17.1552 11.1126 17.1625C11.1013 17.1697 11.0915 17.1759 11.0833 17.181L11.0632 17.1936L11.0569 17.1976L11.053 17.2C11.0526 17.2002 11.053 17.2 9.99939 15.5C9.99939 15.5 16.8786 11.2363 17.9048 6.90625C18.3989 4.82142 16.9167 2.5 14.3913 2.5C13.2901 2.5 12.2802 2.98243 11.5072 3.50745C10.5845 4.13411 9.99939 4.82143 9.99939 4.82143C9.99939 4.82143 9.41423 4.13411 8.49157 3.50745Z" fill="#535353"></path>
    </symbol>
    <symbol fill="none" xmlns="http://www.w3.org/2000/svg" viewBox="0 0 14 14" id="location">
        <path fill-rule="evenodd" clip-rule="evenodd" d="M7.00001 0.333496C5.15906 0.333496 3.66668 1.82588 3.66668 3.66683C3.66668 5.27947 4.81185 6.62464 6.33334 6.93348V10.3335C6.33334 10.7017 6.63182 11.0002 7.00001 11.0002C7.3682 11.0002 7.66668 10.7017 7.66668 10.3335V6.93348C9.18817 6.62464 10.3333 5.27947 10.3333 3.66683C10.3333 1.82588 8.84096 0.333496 7.00001 0.333496ZM9.00001 3.66683C9.00001 4.7714 8.10458 5.66683 7.00001 5.66683C5.89544 5.66683 5.00001 4.7714 5.00001 3.66683C5.00001 2.56226 5.89544 1.66683 7.00001 1.66683C8.10458 1.66683 9.00001 2.56226 9.00001 3.66683ZM1.92271 9.97892C2.67239 9.76368 3.63757 9.66654 4.57594 9.66683C4.91066 9.66694 5.18193 9.9655 5.18183 10.3337C5.18174 10.7019 4.91032 11.0003 4.5756 11.0002C3.69579 10.9999 2.84278 11.0928 2.22883 11.269C1.93344 11.3538 1.73103 11.4476 1.61162 11.5314C1.65194 11.5621 1.71192 11.601 1.80023 11.6465C2.10287 11.8023 2.56742 11.9385 3.15464 12.0464C4.31713 12.2598 5.79434 12.3335 6.99999 12.3335C8.2057 12.3334 9.68291 12.2597 10.8454 12.0462C11.4326 11.9384 11.8971 11.8021 12.1997 11.6462C12.2925 11.5984 12.3541 11.5579 12.3944 11.5265C12.3605 11.5033 12.3128 11.4749 12.2463 11.4424C11.9813 11.3128 11.5916 11.2122 11.1537 11.1409C10.7256 11.0712 10.2923 11.0357 9.96262 11.0178C9.79869 11.0089 9.6624 11.0045 9.56776 11.0023C9.52048 11.0012 9.4837 11.0007 9.45919 11.0004L9.43187 11.0002L9.42555 11.0002L9.42418 11.0002C9.08953 11.0001 8.81824 10.7017 8.8182 10.3336C8.81815 9.96539 9.08998 9.66688 9.4247 9.66683C9.4247 9.66683 9.42418 9.66683 9.42426 10.3335L9.4247 9.66683L9.42555 9.66683L9.42824 9.66684L9.43751 9.66687L9.471 9.66715C9.49976 9.66745 9.54111 9.66806 9.59326 9.66927C9.69748 9.67168 9.84528 9.67649 10.0223 9.68608C10.3744 9.70516 10.8502 9.7436 11.3312 9.82193C11.8024 9.89867 12.3218 10.0202 12.7386 10.2239C13.1066 10.4039 13.6667 10.7871 13.6667 11.5184C13.6667 12.2408 13.1186 12.6452 12.7137 12.8538C12.2612 13.0869 11.668 13.2469 11.045 13.3613C9.78708 13.5924 8.23398 13.6668 7.00004 13.6668C5.76608 13.6669 4.21299 13.5925 2.95508 13.3615C2.3321 13.2471 1.73892 13.0871 1.28638 12.8541C0.881578 12.6457 0.333344 12.2414 0.333344 11.519C0.333344 11.0032 0.631995 10.6516 0.91082 10.4428C1.19211 10.2321 1.55224 10.0853 1.92271 9.97892ZM12.4716 11.5958C12.4716 11.5958 12.4694 11.5935 12.467 11.5885C12.4694 11.5915 12.4713 11.5948 12.4713 11.5948L12.4716 11.5958ZM12.4639 11.4584C12.4653 11.4552 12.4664 11.4537 12.4664 11.4537L12.4662 11.4544C12.4662 11.4544 12.4651 11.4565 12.4639 11.4584ZM1.53357 11.4541C1.53357 11.4541 1.5347 11.4556 1.53604 11.4588C1.53408 11.4557 1.53357 11.4541 1.53357 11.4541ZM1.52766 11.6031C1.52575 11.6065 1.52424 11.6081 1.52424 11.6081C1.52424 11.6081 1.52501 11.6064 1.52766 11.6031Z" fill="#7400DB"></path>
    </symbol>
    <symbol fill="none" xmlns="http://www.w3.org/2000/svg" viewBox="0 0 12 10" id="mail">
        <path fill-rule="evenodd" clip-rule="evenodd" d="M1.91667 0.333496C0.950174 0.333496 0.166672 1.117 0.166672 2.0835V7.91683C0.166672 8.88333 0.950173 9.66683 1.91667 9.66683H10.0833C11.0498 9.66683 11.8333 8.88333 11.8333 7.91683V2.0835C11.8333 1.117 11.0498 0.333496 10.0833 0.333496H1.91667ZM1.38661 1.83963C1.47895 1.63925 1.68157 1.50016 1.91667 1.50016H10.0833C10.3184 1.50016 10.5211 1.63925 10.6134 1.83963L6.35814 5.14928C6.14749 5.31312 5.85252 5.31312 5.64187 5.14928L1.38661 1.83963ZM1.33334 3.2762V6.67139L3.4407 4.91526L1.33334 3.2762ZM1.3817 8.14975C1.47162 8.35599 1.67731 8.50016 1.91667 8.50016H10.0833C10.3227 8.50016 10.5284 8.35599 10.6183 8.14975L7.6167 5.6484L7.0744 6.07019C6.44246 6.5617 5.55755 6.5617 4.92561 6.07019L4.38331 5.6484L1.3817 8.14975ZM10.6667 6.67139V3.2762L8.55932 4.91526L10.6667 6.67139Z" fill="#B6B6B6"></path>
    </symbol>
    <symbol fill="none" xmlns="http://www.w3.org/2000/svg" viewBox="0 0 9 11" id="pay">
        <path fill-rule="evenodd" clip-rule="evenodd" d="M2.36887 1.97235C2.51011 1.36703 3.04386 0.916828 3.68072 0.916828L7.27656 0.916828C8.02128 0.916828 8.625 1.53244 8.625 2.29183L8.625 8.7085C8.625 9.46789 8.02128 10.0835 7.27656 10.0835L4.57968 10.0835L3.68072 10.0835C2.936 10.0835 2.33228 9.46789 2.33228 8.7085L2.33228 8.49014L0.494998 4.34484C0.18829 3.65284 0.489795 2.83833 1.16843 2.52558L1.62922 2.31322L2.2692 2.01828L2.36887 1.97235ZM5.02916 9.16683L7.27656 9.16683C7.5248 9.16683 7.72604 8.96163 7.72604 8.7085L7.72604 2.29183C7.72604 2.0387 7.5248 1.83349 7.27656 1.83349L5.02916 1.83349L5.02916 9.16683ZM4.1302 1.83349L4.1302 9.16683L3.68072 9.16683C3.43248 9.16683 3.23124 8.96163 3.23124 8.7085L3.23124 2.29183C3.23124 2.0387 3.43248 1.8335 3.68072 1.83349L4.1302 1.83349ZM2.33228 2.99515L1.99945 3.14854L1.53866 3.36089C1.31245 3.46514 1.21194 3.73665 1.31418 3.96731L2.33228 6.26436L2.33228 2.99515ZM6.3776 8.7085C6.12936 8.7085 5.92812 8.50329 5.92812 8.25016L5.92812 6.41683C5.92812 6.1637 6.12936 5.95849 6.3776 5.95849C6.62584 5.95849 6.82708 6.1637 6.82708 6.41683L6.82708 8.25016C6.82708 8.50329 6.62584 8.7085 6.3776 8.7085Z" fill="white"></path>
    </symbol>
    <symbol fill="none" xmlns="http://www.w3.org/2000/svg" viewBox="0 0 18 20" id="play">
        <path d="M16.125 8.05144C17.625 8.91747 17.625 11.0825 16.125 11.9486L4.125 18.8768C2.625 19.7428 0.749999 18.6603 0.749999 16.9282L0.75 3.07179C0.75 1.33974 2.625 0.257213 4.125 1.12324L16.125 8.05144Z" stroke="white" stroke-width="1.5"></path>
    </symbol>
    <symbol fill="none" xmlns="http://www.w3.org/2000/svg" viewBox="0 0 16 16" id="search">
        <path d="M7.33333 12.6667C10.2789 12.6667 12.6667 10.2789 12.6667 7.33333C12.6667 4.38781 10.2789 2 7.33333 2C4.38781 2 2 4.38781 2 7.33333C2 10.2789 4.38781 12.6667 7.33333 12.6667Z" stroke="#6800C5" stroke-width="1.5" stroke-linecap="round" stroke-linejoin="round"></path>
        <path d="M14 14.0001L11.1 11.1001" stroke="#6800C5" stroke-width="1.5" stroke-linecap="round" stroke-linejoin="round"></path>
    </symbol>
    <symbol fill="none" xmlns="http://www.w3.org/2000/svg" viewBox="0 0 12 20" id="slide-next">
        <path fill-rule="evenodd" clip-rule="evenodd" d="M0.322183 0.325437C0.751759 -0.108479 1.44824 -0.108479 1.87782 0.325437L11.6778 9.21433C12.1074 9.64824 12.1074 10.3518 11.6778 10.7857L1.87782 19.6746C1.44824 20.1085 0.751759 20.1085 0.322183 19.6746C-0.107394 19.2406 -0.107394 18.5371 0.322183 18.1032L9.34437 10L0.322183 1.89679C-0.107394 1.46287 -0.107394 0.759353 0.322183 0.325437Z" fill="#535353"></path>
    </symbol>
    <symbol fill="none" xmlns="http://www.w3.org/2000/svg" viewBox="0 0 12 20" id="slide-prev">
        <path fill-rule="evenodd" clip-rule="evenodd" d="M11.6778 0.325437C11.2482 -0.108479 10.5518 -0.108479 10.1222 0.325437L0.322183 9.21433C-0.107395 9.64824 -0.107395 10.3518 0.322183 10.7857L10.1222 19.6746C10.5518 20.1085 11.2482 20.1085 11.6778 19.6746C12.1074 19.2406 12.1074 18.5371 11.6778 18.1032L2.65563 10L11.6778 1.89679C12.1074 1.46287 12.1074 0.759353 11.6778 0.325437Z" fill="#535353"></path>
    </symbol>
    <symbol viewBox="0 0 18 18" fill="none" xmlns="http://www.w3.org/2000/svg" id="phone">
        <path fill-rule="evenodd" clip-rule="evenodd" d="M4.25322 2.33144C4.25324 2.33143 4.25345 2.33165 4.25378 2.33215ZM4.28911 2.38834L5.96183 5.04987C5.7597 5.2415 5.53922 5.43131 5.30194 5.63559C5.098 5.81117 4.88165 5.99743 4.65386 6.20472C4.08929 6.71849 3.98024 7.54479 4.34563 8.18785C6.2778 11.5883 8.91314 13.1356 10.0923 13.6912C10.8027 14.0259 11.5746 13.7618 12.0043 13.2148L13.1618 11.7414C13.1625 11.7405 13.1624 11.7408 13.162 11.741C13.1619 11.7411 13.1627 11.7406 13.1645 11.7403C13.1662 11.74 13.168 11.74 13.1694 11.7403C13.1705 11.7405 13.1719 11.7409 13.1744 11.7424C13.8488 12.1586 14.7899 12.7244 15.6542 13.2033C15.499 14.1405 15.1424 14.6865 14.7492 15.0203C14.3363 15.3708 13.8024 15.5553 13.2069 15.6219C12.0179 15.7548 10.8108 15.3941 10.5431 15.3062C10.2477 15.1552 8.62804 14.3027 6.89773 12.9211C5.11349 11.4966 3.3244 9.59804 2.64015 7.4206C2.14009 5.82925 2.32865 4.70943 2.72169 3.93699C3.10165 3.19027 3.71651 2.68345 4.28911 2.38834ZM3.68401 0.813141C4.47229 0.439263 5.28739 0.829083 5.66706 1.43319L7.41697 4.21753C7.77074 4.78042 7.79499 5.60329 7.21986 6.16699C6.97338 6.40857 6.63045 6.7055 6.31134 6.9818C6.13618 7.13347 5.96819 7.27893 5.82726 7.40561C7.49019 10.3012 9.71341 11.6409 10.7246 12.1308L11.8502 10.698C12.3816 10.0215 13.3279 9.8634 14.0485 10.3081C14.7151 10.7195 15.6366 11.2733 16.4717 11.7356C17.0287 12.044 17.4271 12.6868 17.3142 13.4126C17.1115 14.7162 16.5819 15.6657 15.8273 16.3063C15.0852 16.9362 14.2013 17.2035 13.3915 17.294C11.7989 17.4721 10.2755 16.9899 9.99732 16.8967C9.92689 16.8731 9.86844 16.8482 9.80561 16.8163C9.50697 16.6646 7.747 15.7469 5.85855 14.2392C3.98974 12.7471 1.88217 10.5887 1.04603 7.92788C0.43184 5.97336 0.613529 4.3886 1.23351 3.17017C1.84262 1.9731 2.82904 1.21865 3.68401 0.813141Z" fill="#7400DB"/>
    </symbol>
</svg>